# xmcd
#
# Track frame offsets: 
#        150
#        20011
#        39649
#        59732
#        82184
#        99739
#        119356
#        139586
#        155796
#        171951
#        187486
#        208747
#
# Disc length: 3046 seconds
#
# Revision: 0
# Processed by: cddbd v1.5.2PL0 Copyright (c) Steve Scherf et al.
# Submitted via: ExactAudioCopy v0.99pb4
#
DISCID=be0be40c
DTITLE=Patricia Kaas - Cafe Noir
DYEAR=1996
DGENRE=Pop
TTITLE0=When the night rolls in
TTITLE1=Ain't no sunshine
TTITLE2=Company
TTITLE3=Don't let me be lonely tonight
TTITLE4=Sometimes it snows in April
TTITLE5=You don't have to say you love me
TTITLE6=I wish you love
TTITLE7=My life
TTITLE8=If you leave me now
TTITLE9=Black coffee
TTITLE10=Ain't no way
TTITLE11=I want to love you
EXTD=
EXTT0=
EXTT1=
EXTT2=
EXTT3=
EXTT4=
EXTT5=
EXTT6=
EXTT7=
EXTT8=
EXTT9=
EXTT10=
EXTT11=
PLAYORDER=
